<svg xmlns="http://www.w3.org/2000/svg" version="1.1" xmlns:xlink="http://www.w3.org/1999/xlink" xmlns:svgjs="http://svgjs.dev/svgjs" width="1000" height="1000" viewBox="0 0 1000 1000"><rect width="1000" height="1000" fill="#ffffff"></rect><g transform="matrix(0.7,0,0,0.7,149.57575757575756,444.1503529411765)"><svg viewBox="0 0 396 63" data-background-color="#ffffff" preserveAspectRatio="xMidYMid meet" height="159" width="1000" xmlns="http://www.w3.org/2000/svg" xmlns:xlink="http://www.w3.org/1999/xlink"><g id="tight-bounds" transform="matrix(1,0,0,1,0.2400000000000091,0.11300776914538346)"><svg viewBox="0 0 395.52 62.773984461709205" height="62.773984461709205" width="395.52"><g><svg viewBox="0 0 395.52 62.773984461709205" height="62.773984461709205" width="395.52"><g><svg viewBox="0 0 395.52 62.773984461709205" height="62.773984461709205" width="395.52"><g id="textblocktransform"><svg viewBox="0 0 395.52 62.773984461709205" height="62.773984461709205" width="395.52" id="textblock"><g><svg viewBox="0 0 395.52 62.773984461709205" height="62.773984461709205" width="395.52"><g transform="matrix(1,0,0,1,0,0)"><svg width="395.52" viewBox="1.5 -35 225.24000549316406 35.75" height="62.773984461709205" data-palette-color="#233565"><path d="M22.25 0.5L7-28.75 7-2.25 11-0.75 11 0 1.5 0 1.5-0.75 5.5-2.25 5.5-33.5 2.5-34.25 2.5-35 8.75-35Q11.35-35 12.88-33.93 14.4-32.85 15.5-30.75L15.5-30.75 26.4-9.9 34.75-30.75Q35.6-32.95 37.05-33.98 38.5-35 41.5-35L41.5-35 46.75-35 46.75-34.25 43.75-33.5 43.75-1.5 46.75-0.75 46.75 0 32.5 0 32.5-0.75 35.5-1.5 35.5-28.75 23.75 0.5 22.25 0.5ZM71 0.5L55.75-28.75 55.75-2.25 59.75-0.75 59.75 0 50.25 0 50.25-0.75 54.25-2.25 54.25-33.5 51.25-34.25 51.25-35 57.5-35Q60.1-35 61.62-33.93 63.15-32.85 64.25-30.75L64.25-30.75 75.15-9.9 83.5-30.75Q84.35-32.95 85.8-33.98 87.25-35 90.25-35L90.25-35 95.5-35 95.5-34.25 92.5-33.5 92.5-1.5 95.5-0.75 95.5 0 81.25 0 81.25-0.75 84.25-1.5 84.25-28.75 72.5 0.5 71 0.5ZM113.25 0.75Q107.05 0.75 103.52-2.78 100-6.3 100-12.5L100-12.5Q100-18.7 103.52-22.23 107.05-25.75 113.25-25.75L113.25-25.75Q119.45-25.75 122.97-22.23 126.5-18.7 126.5-12.5L126.5-12.5Q126.5-6.3 122.97-2.78 119.45 0.75 113.25 0.75L113.25 0.75ZM113.25-0.25Q115.25-0.25 116.62-3.05 118-5.85 118-12.5L118-12.5Q118-19.15 116.62-21.95 115.25-24.75 113.25-24.75L113.25-24.75Q111.25-24.75 109.87-21.95 108.5-19.15 108.5-12.5L108.5-12.5Q108.5-5.85 109.87-3.05 111.25-0.25 113.25-0.25L113.25-0.25ZM142.49 0.5L129.99-23.5 127.49-24.25 127.49-25 133.74-25Q136.34-25 137.87-23.93 139.39-22.85 140.49-20.75L140.49-20.75 146.44-9.2 151.99-22.75 148.24-24.25 148.24-25 157.49-25 157.49-24.25 153.49-22.75 143.99 0.5 142.49 0.5ZM158.49 0L158.49-0.75 161.49-1.5 161.49-23.5 158.49-24.25 158.49-25 164.99-25Q169.49-25 169.49-20.5L169.49-20.5 169.49-1.5 172.49-0.75 172.49 0 158.49 0ZM164.99-28Q163.49-28 162.49-29 161.49-30 161.49-31.5L161.49-31.5Q161.49-33 162.49-34 163.49-35 164.99-35L164.99-35Q166.49-35 167.49-34 168.49-33 168.49-31.5L168.49-31.5Q168.49-30 167.49-29 166.49-28 164.99-28L164.99-28ZM188.99 0.75Q182.59 0.75 179.04-2.78 175.49-6.3 175.49-12.5L175.49-12.5Q175.49-16.55 177.04-19.55 178.59-22.55 181.36-24.15 184.14-25.75 187.74-25.75L187.74-25.75Q191.34-25.75 194.06-24.4 196.79-23.05 198.26-20.78 199.74-18.5 199.74-15.75L199.74-15.75Q199.74-14.5 199.49-13.6L199.49-13.6 199.24-12.75Q197.09-12.3 194.59-12L194.59-12Q189.34-11.25 183.99-11.25L183.99-11.25Q183.99-5.45 185.59-2.98 187.19-0.5 189.99-0.5L189.99-0.5Q191.94-0.5 193.61-1.43 195.29-2.35 196.26-3.88 197.24-5.4 197.24-7L197.24-7 198.49-7Q198.49-5 197.29-3.2 196.09-1.4 193.94-0.33 191.79 0.75 188.99 0.75L188.99 0.75ZM183.99-12.5Q187.19-12.5 189.19-12.75L189.19-12.75Q190.04-12.8 190.99-13L190.99-13Q191.04-13.25 191.24-14.1L191.24-14.1Q191.49-15.35 191.49-16.75L191.49-16.75Q191.49-20.9 190.39-22.83 189.29-24.75 187.74-24.75L187.74-24.75Q183.99-24.75 183.99-12.5L183.99-12.5ZM215.24 0.75Q212.14 0.75 209.69-0.6L209.69-0.6Q208.49-1.25 207.74-2L207.74-2Q206.94-0.9 205.99-0.3L205.99-0.3Q205.54 0 204.99 0.25L204.99 0.25 203.74 0.25 203.74-8.25 205.74-8.25Q206.39-6.15 207.64-4.35L207.64-4.35Q210.29-0.5 214.24-0.5L214.24-0.5Q216.34-0.5 217.41-1.53 218.49-2.55 218.49-4.5L218.49-4.5Q218.49-6.15 217.01-7.28 215.54-8.4 212.39-10.05L212.39-10.05Q209.69-11.4 208.01-12.48 206.34-13.55 205.16-15.18 203.99-16.8 203.99-19L203.99-19Q203.99-22 206.56-23.88 209.14-25.75 214.49-25.75L214.49-25.75Q217.14-25.75 219.39-24.35L219.39-24.35Q220.49-23.7 221.29-23L221.29-23Q221.94-23.9 223.04-24.7L223.04-24.7Q223.89-25.2 224.04-25.25L224.04-25.25 225.29-25.25 225.29-16.75 223.29-16.75Q222.54-18.9 221.44-20.6L221.44-20.6Q218.94-24.5 215.49-24.5L215.49-24.5Q214.14-24.5 213.19-23.5 212.24-22.5 212.24-21L212.24-21Q212.24-19.1 213.84-17.82 215.44-16.55 218.69-14.9L218.69-14.9Q221.34-13.55 222.91-12.53 224.49-11.5 225.61-10 226.74-8.5 226.74-6.5L226.74-6.5Q226.74 0.75 215.24 0.75L215.24 0.75Z" opacity="1" transform="matrix(1,0,0,1,0,0)" fill="#233565" class="wordmark-text-0" data-fill-palette-color="primary" id="text-0"></path></svg></g></svg></g></svg></g></svg></g></svg></g><defs></defs></svg><rect width="395.52" height="62.773984461709205" fill="none" stroke="none" visibility="hidden"></rect></g></svg></g></svg>